<?xml version="1.0" encoding="UTF-8" standalone="no"?>
<!-- Created with Inkscape (http://www.inkscape.org/) -->

<svg
   xmlns:dc="http://purl.org/dc/elements/1.1/"
   xmlns:cc="http://creativecommons.org/ns#"
   xmlns:rdf="http://www.w3.org/1999/02/22-rdf-syntax-ns#"
   xmlns:svg="http://www.w3.org/2000/svg"
   xmlns="http://www.w3.org/2000/svg"
   xmlns:sodipodi="http://sodipodi.sourceforge.net/DTD/sodipodi-0.dtd"
   xmlns:inkscape="http://www.inkscape.org/namespaces/inkscape"
   width="49.995605mm"
   height="49.995602mm"
   viewBox="0 0 177.14978 177.14977"
   id="svg2"
   version="1.1"
   inkscape:version="0.91 r13725"
   sodipodi:docname="icon.svg">
  <defs
     id="defs4" />
  <sodipodi:namedview
     id="base"
     pagecolor="#ffffff"
     bordercolor="#666666"
     borderopacity="1.0"
     inkscape:pageopacity="0.0"
     inkscape:pageshadow="2"
     inkscape:zoom="1.4"
     inkscape:cx="-72.975037"
     inkscape:cy="60.612552"
     inkscape:document-units="px"
     inkscape:current-layer="layer1"
     showgrid="false"
     inkscape:window-width="1600"
     inkscape:window-height="811"
     inkscape:window-x="0"
     inkscape:window-y="27"
     inkscape:window-maximized="1"
     fit-margin-top="0"
     fit-margin-left="0"
     fit-margin-right="0"
     fit-margin-bottom="0" />
  <metadata
     id="metadata7">
    <rdf:RDF>
      <cc:Work
         rdf:about="">
        <dc:format>image/svg+xml</dc:format>
        <dc:type
           rdf:resource="http://purl.org/dc/dcmitype/StillImage" />
        <dc:title />
      </cc:Work>
    </rdf:RDF>
  </metadata>
  <g
     inkscape:label="Livello 1"
     inkscape:groupmode="layer"
     id="layer1"
     transform="translate(-214.72344,-193.79852)">
    <path
       style="fill:none;fill-rule:evenodd;stroke:#999999;stroke-width:12;stroke-linecap:butt;stroke-linejoin:miter;stroke-miterlimit:4;stroke-dasharray:none;stroke-opacity:1"
       d="m 225.26402,305.85947 46.46701,-57.57869 60.60916,57.07362 50.00255,7.07106"
       id="path4170"
       inkscape:connector-curvature="0" />
    <circle
       style="color:#000000;clip-rule:nonzero;display:inline;overflow:visible;visibility:visible;opacity:1;isolation:auto;mix-blend-mode:normal;color-interpolation:sRGB;color-interpolation-filters:linearRGB;solid-color:#000000;solid-opacity:1;fill:none;fill-opacity:1;fill-rule:nonzero;stroke:#4d4d4d;stroke-width:12.10282612;stroke-linecap:butt;stroke-linejoin:miter;stroke-miterlimit:4;stroke-dasharray:none;stroke-dashoffset:0;stroke-opacity:1;color-rendering:auto;image-rendering:auto;shape-rendering:auto;text-rendering:auto;enable-background:accumulate"
       id="path3349"
       cx="303.29831"
       cy="282.37341"
       r="82.523483" />
    <circle
       style="color:#000000;clip-rule:nonzero;display:inline;overflow:visible;visibility:visible;opacity:1;isolation:auto;mix-blend-mode:normal;color-interpolation:sRGB;color-interpolation-filters:linearRGB;solid-color:#000000;solid-opacity:1;fill:#007aff;fill-opacity:1;fill-rule:nonzero;stroke:none;stroke-width:13;stroke-linecap:butt;stroke-linejoin:miter;stroke-miterlimit:4;stroke-dasharray:none;stroke-dashoffset:0;stroke-opacity:1;color-rendering:auto;image-rendering:auto;shape-rendering:auto;text-rendering:auto;enable-background:accumulate"
       id="path4151"
       cx="270.21582"
       cy="249.79601"
       r="21.213203" />
    <circle
       style="color:#000000;clip-rule:nonzero;display:inline;overflow:visible;visibility:visible;opacity:1;isolation:auto;mix-blend-mode:normal;color-interpolation:sRGB;color-interpolation-filters:linearRGB;solid-color:#000000;solid-opacity:1;fill:#00c458;fill-opacity:1;fill-rule:nonzero;stroke:none;stroke-width:13;stroke-linecap:butt;stroke-linejoin:miter;stroke-miterlimit:4;stroke-dasharray:none;stroke-dashoffset:0;stroke-opacity:1;color-rendering:auto;image-rendering:auto;shape-rendering:auto;text-rendering:auto;enable-background:accumulate"
       id="path4151-6"
       cx="334.3605"
       cy="302.82901"
       r="21.213203" />
    <path
       style="color:#000000;clip-rule:nonzero;display:inline;overflow:visible;visibility:visible;opacity:1;isolation:auto;mix-blend-mode:normal;color-interpolation:sRGB;color-interpolation-filters:linearRGB;solid-color:#000000;solid-opacity:1;fill:#e6e6e6;fill-opacity:1;fill-rule:nonzero;stroke:#e6e6e6;stroke-width:1;stroke-linecap:butt;stroke-linejoin:miter;stroke-miterlimit:4;stroke-dasharray:none;stroke-dashoffset:0;stroke-opacity:1;color-rendering:auto;image-rendering:auto;shape-rendering:auto;text-rendering:auto;enable-background:accumulate"
       d="m 291.46829,357.72243 c -12.12525,-2.13815 -20.85441,-5.63938 -31.03875,-12.4495 -11.59525,-7.75359 -21.49989,-19.75094 -27.27696,-33.04022 -1.66299,-3.82543 -1.69901,-4.03639 -0.87739,-5.13787 0.47123,-0.63175 7.4429,-9.30165 15.49259,-19.26643 l 14.6358,-18.11778 2.23826,0.67362 c 4.87692,1.46773 12.95451,0.32793 16.73047,-2.36079 l 1.30882,-0.93196 15.34193,14.48382 15.34193,14.48382 0.0371,6.32326 c 0.0357,6.08213 0.0999,6.45091 1.68438,9.67026 1.12904,2.29396 2.66773,4.30153 4.89063,6.38095 4.07591,3.81281 7.4655,5.21043 13.41256,5.53036 6.89204,0.37077 12.48507,-1.99127 17.08253,-7.21426 l 2.0396,-2.31711 9.25303,1.33699 c 5.08916,0.73534 9.29593,1.37931 9.34836,1.43102 0.18538,0.18286 -4.67229,7.93267 -6.91386,11.03022 -3.39713,4.69434 -11.28696,12.34084 -16.68592,16.17129 -8.36095,5.93193 -18.28541,10.32142 -28.50673,12.60825 -5.86993,1.31329 -21.79383,1.72503 -27.53834,0.71206 l -10e-6,0 z"
       id="path4189"
       inkscape:connector-curvature="0" />
    <path
       style="color:#000000;clip-rule:nonzero;display:inline;overflow:visible;visibility:visible;opacity:1;isolation:auto;mix-blend-mode:normal;color-interpolation:sRGB;color-interpolation-filters:linearRGB;solid-color:#000000;solid-opacity:1;fill:#ffffff;fill-opacity:1;fill-rule:nonzero;stroke:#ffffff;stroke-width:0.71428573;stroke-linecap:butt;stroke-linejoin:miter;stroke-miterlimit:4;stroke-dasharray:none;stroke-dashoffset:0;stroke-opacity:1;color-rendering:auto;image-rendering:auto;shape-rendering:auto;text-rendering:auto;enable-background:accumulate"
       d="m 151.45353,110.00825 c -5.30357,-0.74966 -9.879,-1.72482 -10.16763,-2.16702 -0.28863,-0.44221 -0.53284,-1.60758 -0.54269,-2.58973 -0.01,-0.98214 -0.77993,-3.39285 -1.71128,-5.357139 -5.09857,-10.753336 -18.0806,-15.284607 -28.64982,-10 L 106.09639,92.037218 90.940063,77.787232 C 77.079074,64.755126 75.827618,63.381577 76.297206,61.715804 76.579615,60.71401 76.77985,57.805075 76.742172,55.251504 76.47791,37.341617 54.857699,27.978514 41.49934,39.988827 c -5.64978,5.079638 -6.827287,7.834505 -6.828997,15.976962 -0.0011,5.55947 0.272981,7.29616 1.517065,9.610387 L 37.705897,68.400847 25.472573,83.578139 13.239249,98.755432 12.6618,93.967754 C 11.897482,87.630725 13.173336,75.442619 15.40838,67.729949 22.93897,41.743457 43.445448,21.790262 69.877955,14.730012 76.01,13.092113 78.171838,12.878248 88.596392,12.878248 c 10.424557,0 12.586388,0.213865 18.718438,1.851764 28.36784,7.577188 49.83313,30.055232 55.73925,58.369105 1.79654,8.612619 1.89365,22.257922 0.21509,30.224113 -1.88671,8.95402 -0.66268,8.26149 -11.81564,6.68502 z"
       id="path4138"
       inkscape:connector-curvature="0"
       transform="translate(214.72344,193.79852)" />
  </g>
</svg>
